<?xml version="1.0" encoding="utf-8"?>
<!DOCTYPE svg PUBLIC "-//W3C//DTD SVG 20010904//EN" "http://www.w3.org/TR/2001/REC-SVG-20010904/DTD/svg10.dtd">
<svg version="1.0" xmlns="http://www.w3.org/2000/svg" width="262px" height="261px" viewBox="0 0 262 261" preserveAspectRatio="xMidYMid meet">
 <g fill="#000000">
  <path d="M115.5 259.4 c-45 -6.8 -80.9 -32.4 -100.5 -71.4 -17.7 -35.2 -17.8 -79.6 -0.3 -114.5 17.8 -35.4 50 -60.8 88.5 -69.7 13.5 -3.2 42.1 -3.2 55.6 0 70.9 16.5 114.6 86.3 98.2 156.8 -9.5 40.5 -39.6 75.1 -78.8 90.5 -15.8 6.2 -25.1 7.9 -43.7 8.4 -8.8 0.2 -17.3 0.1 -19 -0.1z m44 -23.7 c36.5 -10.2 66.4 -39.8 76.4 -75.7 10.5 -37.7 -0.1 -78.1 -27.9 -106.1 -14.1 -14.1 -29.8 -23.3 -49 -28.7 -8.7 -2.5 -11 -2.7 -28 -2.7 -17 0 -19.3 0.2 -28 2.7 -31.6 8.8 -57.3 30.7 -71.1 60.3 -12.9 27.8 -12.9 62.5 0 90 13.5 28.9 39.8 51.7 69 59.7 12.3 3.3 15.9 3.7 33.1 3.3 13.9 -0.3 17.9 -0.7 25.5 -2.8z"/>
  <path d="M112 174 c-1.9 -1.9 -2 -3.3 -2 -43.4 0 -36.4 0.2 -41.7 1.6 -43 3.7 -3.7 6.3 -2.3 35 18.6 15.3 11.2 28.2 21 28.7 21.9 2.3 3.7 -0.1 6.3 -16 17.9 -8.7 6.2 -21.6 15.6 -28.7 20.7 -7.1 5.1 -13.7 9.3 -14.7 9.3 -1.1 0 -2.8 -0.9 -3.9 -2z"/>
 </g>
</svg>