<svg width="433" height="89" xmlns="http://www.w3.org/2000/svg" xmlns:undefined="http://www.inkscape.org/namespaces/inkscape">
 <g id="Layer_1">
  <title>Layer 1</title>
  <g>
   <metadata id="svg_65">image/svg+xml</metadata>
   <defs transform="translate(1 0) translate(0 -3) translate(-180 -253) translate(51.3031 0) translate(0 119.258)" id="svg_63">
    <clipPath id="svg_5" clipPathUnits="userSpaceOnUse">
     <path id="svg_64" d="m-95.7727,381.19147l546.042,0l0,-278.635l-546.042,0l0,278.635z"/>
    </clipPath>
   </defs>
   <g transform="matrix(1.33333 0 0 -1.33333 0 371.513)"   id="svg_2">
    <g transform="translate(102.464 169.689)" id="svg_61">
     <path fill="#231f20" fill-rule="nonzero" id="svg_62" d="m-95.7727,102.55647l0,-4.851l7.575,0l0,-4.315l-7.575,0l0,-8.439l-4.768,0l0,22.035l13.162,0l0,-4.43l-8.394,0z"/>
    </g>
    <g id="svg_3">
     <g clip-path="url(#svg_5)" id="svg_4">
      <g transform="translate(126.546 160.583)" id="svg_59">
       <path fill="#231f20" fill-rule="nonzero" id="svg_60" d="m-95.7727,102.55647c0,2.752 -1.88,4.658 -4.53,4.658c-2.65,0 -4.53,-1.906 -4.53,-4.658c0,-2.754 1.88,-4.659 4.53,-4.659c2.65,0 4.53,1.905 4.53,4.659m-13.719,0c0,5.156 3.924,8.98 9.189,8.98c5.239,0 9.189,-3.83 9.189,-8.98c0,-5.125 -3.95,-8.98 -9.189,-8.98c-5.265,0 -9.189,3.855 -9.189,8.98"/>
      </g>
      <g transform="translate(147.106 160.583)" id="svg_57">
       <path fill="#231f20" fill-rule="nonzero" id="svg_58" d="m-95.7727,102.55647c0,2.752 -1.88,4.658 -4.53,4.658c-2.65,0 -4.53,-1.906 -4.53,-4.658c0,-2.754 1.88,-4.659 4.53,-4.659c2.65,0 4.53,1.905 4.53,4.659m-13.719,0c0,5.156 3.924,8.98 9.189,8.98c5.239,0 9.189,-3.83 9.189,-8.98c0,-5.125 -3.95,-8.98 -9.189,-8.98c-5.265,0 -9.189,3.855 -9.189,8.98"/>
      </g>
      <g transform="translate(167.892 160.583)" id="svg_55">
       <path fill="#231f20" fill-rule="nonzero" id="svg_56" d="m-95.7727,102.55647c0,2.664 -1.963,4.658 -4.633,4.658c-2.67,0 -4.628,-1.988 -4.628,-4.658c0,-2.67 1.958,-4.659 4.628,-4.659c2.67,0 4.633,2 4.633,4.659m4.252,14.626l0,-23.126l-3.394,0l-0.543,1.416c-1.426,-1.215 -3.263,-1.923 -5.323,-1.923c-5.157,0 -8.937,3.861 -8.937,9.007c0,5.15 3.78,8.98 8.937,8.98c1.756,0 3.349,-0.51 4.665,-1.408l0,7.054l4.595,0z"/>
      </g>
      <g transform="translate(196.894 160.608)" id="svg_53">
       <path fill="#231f20" fill-rule="nonzero" id="svg_54" d="m-95.7727,102.55647c0,2.67 -1.958,4.658 -4.627,4.658c-2.67,0 -4.634,-1.994 -4.634,-4.658c0,-2.664 1.964,-4.659 4.634,-4.659c2.669,0 4.627,1.989 4.627,4.659m4.504,8.499l0,-16.999l-3.603,0l-0.395,1.521c-1.459,-1.278 -3.364,-2.027 -5.508,-2.027c-5.114,0 -8.917,3.86 -8.917,9.006c0,5.125 3.803,8.955 8.917,8.955c2.182,0 4.115,-0.769 5.585,-2.08l0.491,1.625l3.43,-0.001z"/>
      </g>
      <g transform="translate(221.786 162.386)" id="svg_51">
       <path fill="#231f20" fill-rule="nonzero" id="svg_52" d="m-95.7727,102.55647l0,-10.303l-4.596,0l0,9.559c0,2.57 -0.976,3.808 -2.965,3.808c-2.369,0 -3.814,-1.697 -3.814,-4.431l0,-8.936l-4.596,0l0,16.999l3.154,0l0.896,-2.1c1.286,1.531 3.318,2.504 5.631,2.504c3.875,0 6.29,-2.795 6.29,-7.1"/>
      </g>
      <g transform="translate(238.826 160.583)" id="svg_49">
       <path fill="#231f20" fill-rule="nonzero" id="svg_50" d="m-95.7727,102.55647c0,2.664 -1.963,4.658 -4.633,4.658c-2.67,0 -4.628,-1.988 -4.628,-4.658c0,-2.67 1.958,-4.659 4.628,-4.659c2.67,0 4.633,2 4.633,4.659m4.252,14.626l0,-23.126l-3.394,0l-0.543,1.416c-1.426,-1.215 -3.263,-1.923 -5.323,-1.923c-5.157,0 -8.937,3.861 -8.937,9.007c0,5.15 3.78,8.98 8.937,8.98c1.756,0 3.349,-0.51 4.664,-1.408l0,7.054l4.596,0z"/>
      </g>
      <g transform="translate(269.969 163.127)" id="svg_47">
       <path fill="#231f20" fill-rule="nonzero" id="svg_48" d="m-95.7727,102.55647c0,3.878 -2.627,6.567 -6.413,6.567l-3.448,0l0,-13.187l3.448,0c3.786,0 6.413,2.767 6.413,6.62m4.882,0c0,-6.39 -4.716,-11.044 -11.175,-11.044l-8.336,0l0,22.035l8.336,0c6.484,0 11.175,-4.627 11.175,-10.991"/>
      </g>
      <g transform="translate(288.403 169.177)" id="svg_45">
       <path fill="#231f20" fill-rule="nonzero" id="svg_46" d="m-95.7727,102.55647l0,-4.336l-1.994,0c-2.591,0 -3.614,-1.147 -3.614,-3.926l0,-8.832l-4.597,0l0,16.999l2.947,0l0.818,-2.083c1.21,1.504 2.746,2.178 4.929,2.178l1.511,0z"/>
      </g>
      <path fill="#231f20" fill-rule="nonzero" id="svg_44" d="m195.2483,278.17747l4.578,0l0,-4.272l-4.578,0l0,4.272zm-0.009,-6.539l4.597,0l0,-16.999l-4.597,0l0,16.999z"/>
      <g transform="translate(315.989 162.386)" id="svg_42">
       <path fill="#231f20" fill-rule="nonzero" id="svg_43" d="m-95.7727,102.55647l0,-10.303l-4.596,0l0,9.559c0,2.57 -0.976,3.808 -2.965,3.808c-2.37,0 -3.814,-1.697 -3.814,-4.431l0,-8.936l-4.597,0l0,16.999l3.155,0l0.895,-2.1c1.286,1.531 3.318,2.504 5.632,2.504c3.874,0 6.29,-2.795 6.29,-7.1"/>
      </g>
      <g transform="translate(330.652 152.083)" id="svg_40">
       <path fill="#231f20" fill-rule="nonzero" id="svg_41" d="m-95.7727,102.55647l-5.44,8.133l0,-8.133l-4.596,0l0,23.126l4.596,0l0,-13.681l5.102,7.554l5.294,0l-5.75,-8.095l6.363,-8.904l-5.569,0z"/>
      </g>
      <g transform="translate(109.985 125.163)" id="svg_38">
       <path fill="#231f20" fill-rule="nonzero" id="svg_39" d="m-95.7727,102.55647c0,2.752 -1.88,4.658 -4.53,4.658c-2.65,0 -4.53,-1.906 -4.53,-4.658c0,-2.754 1.88,-4.658 4.53,-4.658c2.65,0 4.53,1.904 4.53,4.658m-13.719,0c0,5.156 3.924,8.98 9.189,8.98c5.239,0 9.189,-3.83 9.189,-8.98c0,-5.125 -3.95,-8.98 -9.189,-8.98c-5.265,0 -9.189,3.855 -9.189,8.98"/>
      </g>
      <g transform="translate(128.035 129.645)" id="svg_36">
       <path fill="#231f20" fill-rule="nonzero" id="svg_37" d="m-95.7727,102.55647l-4.275,0l0,-12.98l-4.596,0l0,12.98l-2.945,0l0,3.788l2.97,0l0,1.54c0,3.254 1.823,5.336 5.394,5.336l3.42,0l0,-3.617l-2.498,0c-1.211,0 -1.866,-0.623 -1.866,-1.834l0,-1.426l4.396,0l0,-3.787z"/>
      </g>
      <g transform="translate(147.42 120.755)" id="svg_34">
       <path fill="#231f20" fill-rule="nonzero" id="svg_35" d="m-95.7727,102.55647l0,-4.092l-3.265,0c-3.74,0 -6.038,2.299 -6.038,6.071l0,7.234l-3.073,0l0,0.992l6.713,7.138l0.878,0l0,-4.436l4.691,0l0,-3.694l-4.613,0l0,-6.625c0,-1.643 0.944,-2.588 2.618,-2.588l2.089,0z"/>
      </g>
      <g transform="translate(160.293 134.065)" id="svg_32">
       <path fill="#231f20" fill-rule="nonzero" id="svg_33" d="m-95.7727,102.55647c3.849,0 6.238,-2.744 6.238,-7.074l0,-10.328l-4.595,0l0,9.558c0,2.544 -0.899,3.809 -2.965,3.809c-2.293,0 -3.815,-1.672 -3.815,-4.432l0,-8.935l-4.596,0l0,23.126l4.596,0l0,-7.704c1.291,1.228 3.107,1.98 5.137,1.98z"/>
      </g>
      <g transform="translate(174.409 127.015)" id="svg_30">
       <path fill="#231f20" fill-rule="nonzero" id="svg_31" d="m-95.7727,102.55647l8.237,0c-0.65,2.078 -2.142,3.205 -4.204,3.205c-2.047,0 -3.499,-1.193 -4.033,-3.205m12.833,-1.791c0,-0.449 -0.032,-0.898 -0.089,-1.348l-12.865,0c0.399,-2.32 1.924,-3.597 4.154,-3.597c1.596,0 2.907,0.756 3.606,1.97l4.83,0c-1.236,-3.705 -4.49,-6.066 -8.436,-6.066c-5.019,0 -8.817,3.887 -8.817,8.98c0,5.12 3.772,8.981 8.817,8.981c5.22,0 8.8,-4.024 8.8,-8.92z"/>
      </g>
      <g transform="translate(203.12 134.269)" id="svg_28">
       <path fill="#231f20" fill-rule="nonzero" id="svg_29" d="m-95.7727,102.55647l0,-4.851l7.575,0l0,-4.315l-7.575,0l0,-8.439l-4.768,0l0,22.035l13.162,0l0,-4.43l-8.394,0z"/>
      </g>
      <g transform="translate(214.398 123.841)" id="svg_26">
       <path fill="#231f20" fill-rule="nonzero" id="svg_27" d="m-95.7727,102.55647l0,9.821l4.596,0l0,-9.298c0,-2.418 1.279,-3.859 3.403,-3.859c2.129,0 3.377,1.473 3.377,3.859l0,9.298l4.596,0l0,-9.821c0,-4.59 -3.165,-7.658 -7.973,-7.658c-4.802,0 -7.999,3.068 -7.999,7.658"/>
      </g>
      <g transform="translate(244.96 120.755)" id="svg_24">
       <path fill="#231f20" fill-rule="nonzero" id="svg_25" d="m-95.7727,102.55647l0,-4.092l-3.266,0c-3.739,0 -6.038,2.299 -6.038,6.071l0,7.234l-3.073,0l0,0.992l6.713,7.138l0.879,0l0,-4.436l4.69,0l0,-3.694l-4.613,0l0,-6.625c0,-1.643 0.945,-2.588 2.619,-2.588l2.089,0z"/>
      </g>
      <g transform="translate(247.866 123.841)" id="svg_22">
       <path fill="#231f20" fill-rule="nonzero" id="svg_23" d="m-95.7727,102.55647l0,9.821l4.596,0l0,-9.298c0,-2.418 1.279,-3.859 3.403,-3.859c2.128,0 3.376,1.473 3.376,3.859l0,9.298l4.596,0l0,-9.821c0,-4.59 -3.165,-7.658 -7.972,-7.658c-4.802,0 -7.999,3.068 -7.999,7.658"/>
      </g>
      <g transform="translate(278.233 133.757)" id="svg_20">
       <path fill="#231f20" fill-rule="nonzero" id="svg_21" d="m-95.7727,102.55647l0,-4.336l-1.994,0c-2.591,0 -3.614,-1.146 -3.614,-3.926l0,-8.832l-4.597,0l0,16.999l2.947,0l0.818,-2.083c1.21,1.504 2.746,2.178 4.929,2.178l1.511,0z"/>
      </g>
      <g transform="translate(284.132 127.015)" id="svg_18">
       <path fill="#231f20" fill-rule="nonzero" id="svg_19" d="m-95.7727,102.55647l8.237,0c-0.649,2.078 -2.142,3.205 -4.205,3.205c-2.046,0 -3.498,-1.193 -4.032,-3.205m12.744,-3.139l-12.865,0c0.399,-2.32 1.925,-3.597 4.153,-3.597c1.598,0 2.908,0.756 3.607,1.97l4.83,0c-1.237,-3.705 -4.49,-6.066 -8.436,-6.066c-5.019,0 -8.817,3.887 -8.817,8.98c0,5.12 3.772,8.981 8.817,8.981c5.22,0 8.8,-4.024 8.8,-8.92c0,-0.449 -0.032,-0.898 -0.089,-1.348"/>
      </g>
      <path fill="#231f20" fill-rule="nonzero" id="svg_17" d="m204.0463,224.13547l4.871,0l0,-4.916l-4.871,0l0,4.916z"/>
      <g transform="translate(330.851 134.274)" id="svg_15">
       <path fill="#231f20" fill-rule="nonzero" id="svg_16" d="m-95.7727,102.55647l-6.127,0l0,-17.611l-4.768,0l0,17.611l-6.126,0l0,4.424l17.021,0l0,-4.424z"/>
      </g>
      <g transform="translate(344.01 125.163)" id="svg_13">
       <path fill="#231f20" fill-rule="nonzero" id="svg_14" d="m-95.7727,102.55647c0,2.752 -1.88,4.658 -4.53,4.658c-2.65,0 -4.531,-1.906 -4.531,-4.658c0,-2.754 1.881,-4.658 4.531,-4.658c2.65,0 4.53,1.904 4.53,4.658m-13.719,0c0,5.156 3.923,8.98 9.189,8.98c5.24,0 9.189,-3.83 9.189,-8.98c0,-5.125 -3.949,-8.98 -9.189,-8.98c-5.266,0 -9.189,3.855 -9.189,8.98"/>
      </g>
      <g transform="translate(364.795 125.163)" id="svg_11">
       <path fill="#231f20" fill-rule="nonzero" id="svg_12" d="m-95.7727,102.55647c0,2.664 -1.963,4.658 -4.633,4.658c-2.67,0 -4.627,-1.988 -4.627,-4.658c0,-2.67 1.957,-4.66 4.627,-4.66c2.67,0 4.633,2 4.633,4.66m4.253,14.626l0,-23.126l-3.395,0l-0.542,1.416c-1.426,-1.215 -3.263,-1.922 -5.324,-1.922c-5.156,0 -8.936,3.86 -8.936,9.006c0,5.15 3.78,8.98 8.936,8.98c1.756,0 3.35,-0.51 4.665,-1.408l0,7.054l4.596,0z"/>
      </g>
      <g transform="translate(386.273 125.188)" id="svg_9">
       <path fill="#231f20" fill-rule="nonzero" id="svg_10" d="m-95.7727,102.55647c0,2.67 -1.957,4.658 -4.627,4.658c-2.67,0 -4.633,-1.994 -4.633,-4.658c0,-2.664 1.963,-4.658 4.633,-4.658c2.67,0 4.627,1.988 4.627,4.658m4.505,8.499l0,-16.999l-3.603,0l-0.395,1.521c-1.46,-1.277 -3.364,-2.027 -5.509,-2.027c-5.113,0 -8.917,3.861 -8.917,9.006c0,5.125 3.804,8.955 8.917,8.955c2.182,0 4.115,-0.769 5.585,-2.08l0.491,1.625l3.431,-0.001z"/>
      </g>
      <g transform="translate(411.83 133.662)" id="svg_7">
       <path fill="#231f20" fill-rule="nonzero" id="svg_8" d="m-95.7727,102.55647l-7.409,-16.772c-2.038,-4.608 -3.829,-6.354 -7.644,-6.354l-1.894,0l0,4.133l1.591,0c2.214,0 2.79,0.59 3.835,3.16l0.064,0.137l-7.201,15.696l5.002,0l4.534,-10.458l4.234,10.458l4.888,0z"/>
      </g>
      <path fill="#231f20" fill-rule="nonzero" id="svg_6" d="m318.7403,241.88547l4.653,0l0,-15.549l-4.653,0l0,15.549zm-0.105,-17.75l4.871,0l0,-4.916l-4.871,0l0,4.916z"/>
     </g>
    </g>
   </g>
  </g>
 </g>

</svg>