<svg xmlns="http://www.w3.org/2000/svg" id="Layer_1" data-name="Layer 1" viewBox="0 0 258.33 51.04"><path d="M22.18,40.57a12,12,0,0,1-8.12-2.67A9.14,9.14,0,0,1,11,30.61h6.33a4.18,4.18,0,0,0,.39,1.84,3.5,3.5,0,0,0,1.07,1.3,4.93,4.93,0,0,0,1.55.74,6.45,6.45,0,0,0,1.82.25,5.82,5.82,0,0,0,3.29-.91,2.83,2.83,0,0,0,1.39-2.48,2.09,2.09,0,0,0-.34-1.18,2.87,2.87,0,0,0-.76-.82,6.19,6.19,0,0,0-1.32-.65c-.6-.22-1.1-.38-1.51-.49L21,27.75l-1.49-.37c-.33-.08-.82-.22-1.47-.41a13.33,13.33,0,0,1-1.49-.52c-.34-.15-.79-.36-1.34-.64A5.35,5.35,0,0,1,14,25a14.29,14.29,0,0,1-1-1,4.65,4.65,0,0,1-.84-1.3,9.36,9.36,0,0,1-.5-1.57,8.21,8.21,0,0,1-.21-1.88,7.76,7.76,0,0,1,2.82-6.41,11.84,11.84,0,0,1,7.68-2.28q4.92,0,7.68,2.48a8.74,8.74,0,0,1,2.74,6.82h-6.2a3.15,3.15,0,0,0-1.26-2.7,5.11,5.11,0,0,0-3.12-.93,5.63,5.63,0,0,0-2.87.7,2.21,2.21,0,0,0-1.22,2A1.93,1.93,0,0,0,18,20a2.88,2.88,0,0,0,.72.79,5.25,5.25,0,0,0,1.28.62,14.87,14.87,0,0,0,1.47.45l1.8.44,2,.51c.44.13,1.08.33,1.91.62a11.39,11.39,0,0,1,1.92.85c.45.28,1,.64,1.59,1.1A5.1,5.1,0,0,1,32,26.87a9.05,9.05,0,0,1,.82,1.94,8.45,8.45,0,0,1,.35,2.46,8.7,8.7,0,0,1-1.53,5.17,8.88,8.88,0,0,1-3.95,3.14A14.45,14.45,0,0,1,22.18,40.57Z"></path><path d="M55.3,37.39a11.91,11.91,0,0,1-8.56,3.22,12,12,0,0,1-8.56-3.22,10.91,10.91,0,0,1-3.38-8.27V11.05h6.28V28.83a5.85,5.85,0,0,0,1.57,4.26,5.48,5.48,0,0,0,4.09,1.61,5.56,5.56,0,0,0,4.12-1.61,5.82,5.82,0,0,0,1.59-4.26V11.05h6.24V29.12A10.92,10.92,0,0,1,55.3,37.39Z"></path><path d="M73,11.05a10.13,10.13,0,0,1,7.32,2.83A9.49,9.49,0,0,1,83.29,21a9.5,9.5,0,0,1-2.93,7.12A10.17,10.17,0,0,1,73,30.94H68.2V40H61.92V11.05Zm-.25,14.1A3.94,3.94,0,0,0,76.93,21a4.11,4.11,0,0,0-1.14-3,4,4,0,0,0-3-1.18H68.2v8.31Z"></path><path d="M90.82,34.16h11.53V40H84.53V11.05H101.9v5.79H90.82v5.7h10v5.67h-10Z"></path><path d="M120.46,40l-5.62-9.88h-4V40h-6.28V11.05h11.7a10.92,10.92,0,0,1,5.16,1.22A9,9,0,0,1,125,15.68a9.52,9.52,0,0,1,1.3,5,9.09,9.09,0,0,1-5.25,8.4l6.41,11Zm-9.63-23.15v7.48h5a4.34,4.34,0,0,0,3-1A3.47,3.47,0,0,0,120,20.6a3.81,3.81,0,0,0-.5-2,3.35,3.35,0,0,0-1.45-1.33,5,5,0,0,0-2.23-.47Z"></path><path d="M138.37,40.57a12,12,0,0,1-8.13-2.67,9.14,9.14,0,0,1-3.08-7.29h6.33a4.18,4.18,0,0,0,.39,1.84,3.43,3.43,0,0,0,1.08,1.3,4.73,4.73,0,0,0,1.55.74,6.33,6.33,0,0,0,1.81.25,5.82,5.82,0,0,0,3.29-.91A2.81,2.81,0,0,0,143,31.35a2.16,2.16,0,0,0-.33-1.18,3,3,0,0,0-.77-.82,6.19,6.19,0,0,0-1.32-.65c-.6-.22-1.1-.38-1.51-.49l-1.86-.46-1.49-.37c-.33-.08-.82-.22-1.47-.41a13.33,13.33,0,0,1-1.49-.52c-.34-.15-.79-.36-1.34-.64a5.35,5.35,0,0,1-1.28-.83,14.29,14.29,0,0,1-1-1,4.65,4.65,0,0,1-.84-1.3,9.36,9.36,0,0,1-.5-1.57,8.21,8.21,0,0,1-.21-1.88,7.78,7.78,0,0,1,2.81-6.41,11.9,11.9,0,0,1,7.7-2.28c3.28,0,5.83.83,7.67,2.48a8.74,8.74,0,0,1,2.75,6.82h-6.21a3.15,3.15,0,0,0-1.26-2.7,5.11,5.11,0,0,0-3.12-.93,5.63,5.63,0,0,0-2.87.7,2.21,2.21,0,0,0-1.22,2,1.93,1.93,0,0,0,.31,1.09,3,3,0,0,0,.72.79,5.44,5.44,0,0,0,1.28.62,14.87,14.87,0,0,0,1.47.45l1.8.44,2,.51c.44.13,1.08.33,1.91.62a11.39,11.39,0,0,1,1.92.85c.45.28,1,.64,1.59,1.1a4.93,4.93,0,0,1,1.38,1.49,8.57,8.57,0,0,1,.83,1.94,8.13,8.13,0,0,1,.35,2.46,8.7,8.7,0,0,1-1.53,5.17,8.88,8.88,0,0,1-4,3.14A14.44,14.44,0,0,1,138.37,40.57Z"></path><path d="M165,40.61a15.11,15.11,0,0,1-11-4.32,14.49,14.49,0,0,1-4.4-10.77A14.49,14.49,0,0,1,154,14.75a15.11,15.11,0,0,1,11-4.32,15.94,15.94,0,0,1,7.88,2,14.24,14.24,0,0,1,5.52,5.42,15.21,15.21,0,0,1,2,7.71A14.48,14.48,0,0,1,176,36.31,15.06,15.06,0,0,1,165,40.61Zm0-5.91a9.14,9.14,0,0,0,4.63-1.18,8.43,8.43,0,0,0,3.25-3.29,9.52,9.52,0,0,0,1.18-4.71A8.93,8.93,0,0,0,171.46,19,8.68,8.68,0,0,0,165,16.34a9,9,0,0,0-9.11,9.18,8.92,8.92,0,0,0,2.62,6.56A8.79,8.79,0,0,0,165,34.7Z"></path><path d="M200.55,11.05h6.12V40h-5.21L188.35,21.92V40h-6.16V11.05h5.67L200.55,28.7Z"></path><path d="M210.18,40V11.05h6.29V40Z"></path><path d="M233.26,40.61a15,15,0,0,1-7.61-2,14.15,14.15,0,0,1-5.38-5.42,15.42,15.42,0,0,1-1.94-7.67,14.78,14.78,0,0,1,4.28-10.79,14.36,14.36,0,0,1,10.65-4.34,13.87,13.87,0,0,1,9.13,3.18A14.07,14.07,0,0,1,247.27,22H241a8.59,8.59,0,0,0-1.7-3,7.47,7.47,0,0,0-2.67-1.94A8.51,8.51,0,0,0,227.11,19a9.19,9.19,0,0,0-2.46,6.53,9.09,9.09,0,0,0,2.46,6.51,8.1,8.1,0,0,0,6.15,2.61,7.75,7.75,0,0,0,4.91-1.61A8.29,8.29,0,0,0,241,28.66h6.32a14.39,14.39,0,0,1-4.86,8.67A13.76,13.76,0,0,1,233.26,40.61Z"></path></svg>